# xmcd
#
# Track frame offsets:
#	150
#	14770
#	28201
#	42621
#	58303
#	72618
#	88905
#	108326
#	120864
#	135573
#	150362
#	167739
#	186631
#	200782
#	218227
#	233831
#	256314
#	271694
#	284713
#	299011
#
# Disc length: 4279 seconds
#
# Revision: 0
# Processed by: cddbd v1.5.1PL0 Copyright (c) Steve Scherf et al.
# Submitted via: audiograbber 1.83.01
#
DISCID=4510b514
DTITLE=Silverwings - 10th Anniversary
DYEAR=2003
DGENRE=Pop
TTITLE0=Call Me The Breeze
TTITLE1=Driving My Life Away
TTITLE2=Eighteen Wheels
TTITLE3=Mexican Girl
TTITLE4=Take 5
TTITLE5=Himbeereis zum Frühstück
TTITLE6=Dance The Night Away
TTITLE7=Oakie From Muskogie
TTITLE8=For The Good Times
TTITLE9=Thing Called Love
TTITLE10=Give Me Hope
TTITLE11=Die kleine Kneipe
TTITLE12=Queen Of Hearts
TTITLE13=Satin Sheeds
TTITLE14=Nur ein Kuß Maddalena
TTITLE15=Ghostrider Medley
TTITLE16=It's Now Or Never
TTITLE17=Am Sonntag will mein Süßer mit mir segeln gehn'
TTITLE18=Every Little Thing
TTITLE19=Country Roads (Take Me Home)
EXTD=
EXTT0=
EXTT1=
EXTT2=
EXTT3=
EXTT4=
EXTT5=
EXTT6=
EXTT7=
EXTT8=
EXTT9=
EXTT10=
EXTT11=
EXTT12=
EXTT13=
EXTT14=
EXTT15=
EXTT16=
EXTT17=
EXTT18=
EXTT19=
PLAYORDER=
